# xmcd
#
# Track frame offsets:
#	150
#	22170
#	42403
#	68023
#	89865
#	106790
#	129683
#	156820
#	185775
#	207563
#
# Disc length: 3129 seconds
#
# Revision: 0
# Processed by: cddbd v1.5.2PL0 Copyright (c) Steve Scherf et al.
# Submitted via: EasyCDDAExtractor 10.0.6.1
#
DISCID=960c370a
DTITLE=Vu Khanh - Vu Jhanh - Toi Voi Troi Bo Vo
DYEAR=1989
DGENRE=Viet
TTITLE0=Quen Di Tinh Yeu
TTITLE1=Tuye Roi
TTITLE2=De Quen Con Tim
TTITLE3=Tinh Qua Con Bao
TTITLE4=Co Em Thuo Nao
TTITLE5=Em Dep Nhu Mo
TTITLE6=Van Mai Yeu Em
TTITLE7=Han Tinh
TTITLE8=Toi Voi Troi Bo Vo
TTITLE9=Thang Sau Troi Mua
EXTD=
EXTT0=
EXTT1=
EXTT2=
EXTT3=
EXTT4=
EXTT5=
EXTT6=
EXTT7=
EXTT8=
EXTT9=
PLAYORDER=
